<svg width="182" height="40" viewBox="0 0 182 40" fill="none" xmlns="http://www.w3.org/2000/svg">
<g filter="url(#filter0_d_8_3719)">
<path d="M28.1719 11.8906L20.0625 20L28.1719 28.1094L26.3906 29.8906L16.5 20L26.3906 10.1094L28.1719 11.8906Z" fill="white"/>
<path d="M58.8348 23.872H54.3868L53.6508 26H51.2988L55.3148 14.816H57.9228L61.9388 26H59.5708L58.8348 23.872ZM58.2268 22.08L56.6108 17.408L54.9948 22.08H58.2268ZM71.8079 17.136V26H69.5519V24.88C69.2639 25.264 68.8853 25.568 68.4159 25.792C67.9573 26.0053 67.4559 26.112 66.9119 26.112C66.2186 26.112 65.6053 25.968 65.0719 25.68C64.5386 25.3813 64.1173 24.9493 63.8079 24.384C63.5093 23.808 63.3599 23.1253 63.3599 22.336V17.136H65.5999V22.016C65.5999 22.72 65.7759 23.264 66.1279 23.648C66.4799 24.0213 66.9599 24.208 67.5679 24.208C68.1866 24.208 68.6719 24.0213 69.0239 23.648C69.3759 23.264 69.5519 22.72 69.5519 22.016V17.136H71.8079ZM76.2581 14.16V26H74.0181V14.16H76.2581ZM77.8952 21.536C77.8952 20.64 78.0712 19.8453 78.4232 19.152C78.7859 18.4587 79.2712 17.9253 79.8792 17.552C80.4979 17.1787 81.1859 16.992 81.9432 16.992C82.6045 16.992 83.1805 17.1253 83.6712 17.392C84.1725 17.6587 84.5725 17.9947 84.8712 18.4V17.136H87.1272V26H84.8712V24.704C84.5832 25.12 84.1832 25.4667 83.6712 25.744C83.1699 26.0107 82.5885 26.144 81.9272 26.144C81.1805 26.144 80.4979 25.952 79.8792 25.568C79.2712 25.184 78.7859 24.6453 78.4232 23.952C78.0712 23.248 77.8952 22.4427 77.8952 21.536ZM84.8712 21.568C84.8712 21.024 84.7645 20.56 84.5512 20.176C84.3379 19.7813 84.0499 19.4827 83.6872 19.28C83.3245 19.0667 82.9352 18.96 82.5192 18.96C82.1032 18.96 81.7192 19.0613 81.3672 19.264C81.0152 19.4667 80.7272 19.7653 80.5032 20.16C80.2899 20.544 80.1832 21.0027 80.1832 21.536C80.1832 22.0693 80.2899 22.5387 80.5032 22.944C80.7272 23.3387 81.0152 23.6427 81.3672 23.856C81.7299 24.0693 82.1139 24.176 82.5192 24.176C82.9352 24.176 83.3245 24.0747 83.6872 23.872C84.0499 23.6587 84.3379 23.36 84.5512 22.976C84.7645 22.5813 84.8712 22.112 84.8712 21.568ZM92.5514 21.536C92.5514 20.64 92.7274 19.8453 93.0794 19.152C93.4421 18.4587 93.9274 17.9253 94.5354 17.552C95.1541 17.1787 95.8421 16.992 96.5994 16.992C97.2608 16.992 97.8368 17.1253 98.3274 17.392C98.8288 17.6587 99.2288 17.9947 99.5274 18.4V17.136H101.783V26H99.5274V24.704C99.2394 25.12 98.8394 25.4667 98.3274 25.744C97.8261 26.0107 97.2448 26.144 96.5834 26.144C95.8368 26.144 95.1541 25.952 94.5354 25.568C93.9274 25.184 93.4421 24.6453 93.0794 23.952C92.7274 23.248 92.5514 22.4427 92.5514 21.536ZM99.5274 21.568C99.5274 21.024 99.4208 20.56 99.2074 20.176C98.9941 19.7813 98.7061 19.4827 98.3434 19.28C97.9808 19.0667 97.5914 18.96 97.1754 18.96C96.7594 18.96 96.3754 19.0613 96.0234 19.264C95.6714 19.4667 95.3834 19.7653 95.1594 20.16C94.9461 20.544 94.8394 21.0027 94.8394 21.536C94.8394 22.0693 94.9461 22.5387 95.1594 22.944C95.3834 23.3387 95.6714 23.6427 96.0234 23.856C96.3861 24.0693 96.7701 24.176 97.1754 24.176C97.5914 24.176 97.9808 24.0747 98.3434 23.872C98.7061 23.6587 98.9941 23.36 99.2074 22.976C99.4208 22.5813 99.5274 22.112 99.5274 21.568ZM108.883 17.008C109.939 17.008 110.793 17.344 111.443 18.016C112.094 18.6773 112.419 19.6053 112.419 20.8V26H110.179V21.104C110.179 20.4 110.003 19.8613 109.651 19.488C109.299 19.104 108.819 18.912 108.211 18.912C107.593 18.912 107.102 19.104 106.739 19.488C106.387 19.8613 106.211 20.4 106.211 21.104V26H103.971V17.136H106.211V18.24C106.51 17.856 106.889 17.5573 107.347 17.344C107.817 17.12 108.329 17.008 108.883 17.008ZM117.157 18.976V23.264C117.157 23.5627 117.227 23.7813 117.365 23.92C117.515 24.048 117.76 24.112 118.101 24.112H119.141V26H117.733C115.845 26 114.901 25.0827 114.901 23.248V18.976H113.845V17.136H114.901V14.944H117.157V17.136H119.141V18.976H117.157ZM128.992 21.376C128.992 21.696 128.971 21.984 128.928 22.24H122.448C122.502 22.88 122.726 23.3813 123.12 23.744C123.515 24.1067 124 24.288 124.576 24.288C125.408 24.288 126 23.9307 126.352 23.216H128.768C128.512 24.0693 128.022 24.7733 127.296 25.328C126.571 25.872 125.68 26.144 124.624 26.144C123.771 26.144 123.003 25.9573 122.32 25.584C121.648 25.2 121.12 24.6613 120.736 23.968C120.363 23.2747 120.176 22.4747 120.176 21.568C120.176 20.6507 120.363 19.8453 120.736 19.152C121.11 18.4587 121.632 17.9253 122.304 17.552C122.976 17.1787 123.75 16.992 124.624 16.992C125.467 16.992 126.219 17.1733 126.88 17.536C127.552 17.8987 128.07 18.416 128.432 19.088C128.806 19.7493 128.992 20.512 128.992 21.376ZM126.672 20.736C126.662 20.16 126.454 19.7013 126.048 19.36C125.643 19.008 125.147 18.832 124.56 18.832C124.006 18.832 123.536 19.0027 123.152 19.344C122.779 19.6747 122.55 20.1387 122.464 20.736H126.672ZM132.867 18.512C133.155 18.0427 133.529 17.6747 133.987 17.408C134.457 17.1413 134.99 17.008 135.587 17.008V19.36H134.995C134.291 19.36 133.758 19.5253 133.395 19.856C133.043 20.1867 132.867 20.7627 132.867 21.584V26H130.627V17.136H132.867V18.512ZM138.232 16.08C137.838 16.08 137.507 15.9573 137.24 15.712C136.984 15.456 136.856 15.1413 136.856 14.768C136.856 14.3947 136.984 14.0853 137.24 13.84C137.507 13.584 137.838 13.456 138.232 13.456C138.627 13.456 138.952 13.584 139.208 13.84C139.475 14.0853 139.608 14.3947 139.608 14.768C139.608 15.1413 139.475 15.456 139.208 15.712C138.952 15.9573 138.627 16.08 138.232 16.08ZM139.336 17.136V26H137.096V17.136H139.336ZM145.485 26.144C144.632 26.144 143.864 25.9573 143.181 25.584C142.499 25.2 141.96 24.6613 141.565 23.968C141.181 23.2747 140.989 22.4747 140.989 21.568C140.989 20.6613 141.187 19.8613 141.581 19.168C141.987 18.4747 142.536 17.9413 143.229 17.568C143.923 17.184 144.696 16.992 145.549 16.992C146.403 16.992 147.176 17.184 147.869 17.568C148.563 17.9413 149.107 18.4747 149.501 19.168C149.907 19.8613 150.109 20.6613 150.109 21.568C150.109 22.4747 149.901 23.2747 149.485 23.968C149.08 24.6613 148.525 25.2 147.821 25.584C147.128 25.9573 146.349 26.144 145.485 26.144ZM145.485 24.192C145.891 24.192 146.269 24.096 146.621 23.904C146.984 23.7013 147.272 23.4027 147.485 23.008C147.699 22.6133 147.805 22.1333 147.805 21.568C147.805 20.7253 147.581 20.08 147.133 19.632C146.696 19.1733 146.157 18.944 145.517 18.944C144.877 18.944 144.339 19.1733 143.901 19.632C143.475 20.08 143.261 20.7253 143.261 21.568C143.261 22.4107 143.469 23.0613 143.885 23.52C144.312 23.968 144.845 24.192 145.485 24.192ZM153.992 18.512C154.28 18.0427 154.654 17.6747 155.112 17.408C155.582 17.1413 156.115 17.008 156.712 17.008V19.36H156.12C155.416 19.36 154.883 19.5253 154.52 19.856C154.168 20.1867 153.992 20.7627 153.992 21.584V26H151.752V17.136H153.992V18.512Z" fill="white"/>
</g>
<defs>
<filter id="filter0_d_8_3719" x="-7.5" y="-8" width="197" height="56" filterUnits="userSpaceOnUse" color-interpolation-filters="sRGB">
<feFlood flood-opacity="0" result="BackgroundImageFix"/>
<feColorMatrix in="SourceAlpha" type="matrix" values="0 0 0 0 0 0 0 0 0 0 0 0 0 0 0 0 0 0 127 0" result="hardAlpha"/>
<feOffset/>
<feGaussianBlur stdDeviation="4"/>
<feComposite in2="hardAlpha" operator="out"/>
<feColorMatrix type="matrix" values="0 0 0 0 0 0 0 0 0 0 0 0 0 0 0 0 0 0 0.16 0"/>
<feBlend mode="normal" in2="BackgroundImageFix" result="effect1_dropShadow_8_3719"/>
<feBlend mode="normal" in="SourceGraphic" in2="effect1_dropShadow_8_3719" result="shape"/>
</filter>
</defs>
</svg>
