<svg width="183" height="40" viewBox="0 0 183 40" fill="none" xmlns="http://www.w3.org/2000/svg">
<g filter="url(#filter0_d_8_3721)">
<path d="M33.9277 18.288C33.9277 18.8853 33.7837 19.4453 33.4957 19.968C33.2184 20.4907 32.7757 20.912 32.1677 21.232C31.5704 21.552 30.813 21.712 29.8957 21.712H28.0237V26H25.7837V14.832H29.8957C30.7597 14.832 31.4957 14.9813 32.1037 15.28C32.7117 15.5787 33.165 15.9893 33.4637 16.512C33.773 17.0347 33.9277 17.6267 33.9277 18.288ZM29.7997 19.904C30.4184 19.904 30.877 19.7653 31.1757 19.488C31.4744 19.2 31.6237 18.8 31.6237 18.288C31.6237 17.2 31.0157 16.656 29.7997 16.656H28.0237V19.904H29.7997ZM37.7581 18.512C38.0461 18.0427 38.4194 17.6747 38.8781 17.408C39.3474 17.1413 39.8807 17.008 40.4781 17.008V19.36H39.8861C39.1821 19.36 38.6487 19.5253 38.2861 19.856C37.9341 20.1867 37.7581 20.7627 37.7581 21.584V26H35.5181V17.136H37.7581V18.512ZM45.9228 26.144C45.0695 26.144 44.3015 25.9573 43.6188 25.584C42.9361 25.2 42.3975 24.6613 42.0028 23.968C41.6188 23.2747 41.4268 22.4747 41.4268 21.568C41.4268 20.6613 41.6241 19.8613 42.0188 19.168C42.4241 18.4747 42.9735 17.9413 43.6668 17.568C44.3601 17.184 45.1335 16.992 45.9868 16.992C46.8401 16.992 47.6135 17.184 48.3068 17.568C49.0001 17.9413 49.5441 18.4747 49.9388 19.168C50.3441 19.8613 50.5468 20.6613 50.5468 21.568C50.5468 22.4747 50.3388 23.2747 49.9228 23.968C49.5175 24.6613 48.9628 25.2 48.2588 25.584C47.5655 25.9573 46.7868 26.144 45.9228 26.144ZM45.9228 24.192C46.3281 24.192 46.7068 24.096 47.0588 23.904C47.4215 23.7013 47.7095 23.4027 47.9228 23.008C48.1361 22.6133 48.2428 22.1333 48.2428 21.568C48.2428 20.7253 48.0188 20.08 47.5708 19.632C47.1335 19.1733 46.5948 18.944 45.9548 18.944C45.3148 18.944 44.7761 19.1733 44.3388 19.632C43.9121 20.08 43.6988 20.7253 43.6988 21.568C43.6988 22.4107 43.9068 23.0613 44.3228 23.52C44.7495 23.968 45.2828 24.192 45.9228 24.192ZM47.8268 14.72L44.1468 16.4V14.8L47.8268 12.896V14.72ZM57.0859 26L55.2619 23.248L53.6459 26H51.2459L54.1419 21.552L51.2139 17.136H53.7419L55.5499 19.872L57.1819 17.136H59.5819L56.6699 21.552L59.6139 26H57.0859ZM61.9666 16.08C61.5719 16.08 61.2412 15.9573 60.9746 15.712C60.7186 15.456 60.5906 15.1413 60.5906 14.768C60.5906 14.3947 60.7186 14.0853 60.9746 13.84C61.2412 13.584 61.5719 13.456 61.9666 13.456C62.3612 13.456 62.6866 13.584 62.9426 13.84C63.2092 14.0853 63.3426 14.3947 63.3426 14.768C63.3426 15.1413 63.2092 15.456 62.9426 15.712C62.6866 15.9573 62.3612 16.08 61.9666 16.08ZM63.0706 17.136V26H60.8306V17.136H63.0706ZM76.2917 17.008C77.3797 17.008 78.2544 17.344 78.9157 18.016C79.5877 18.6773 79.9237 19.6053 79.9237 20.8V26H77.6837V21.104C77.6837 20.4107 77.5077 19.8827 77.1557 19.52C76.8037 19.1467 76.3237 18.96 75.7157 18.96C75.1077 18.96 74.6224 19.1467 74.2597 19.52C73.9077 19.8827 73.7317 20.4107 73.7317 21.104V26H71.4917V21.104C71.4917 20.4107 71.3157 19.8827 70.9637 19.52C70.6117 19.1467 70.1317 18.96 69.5237 18.96C68.905 18.96 68.4144 19.1467 68.0517 19.52C67.6997 19.8827 67.5237 20.4107 67.5237 21.104V26H65.2837V17.136H67.5237V18.208C67.8117 17.8347 68.1797 17.5413 68.6277 17.328C69.0864 17.1147 69.5877 17.008 70.1317 17.008C70.825 17.008 71.4437 17.1573 71.9877 17.456C72.5317 17.744 72.953 18.16 73.2517 18.704C73.5397 18.192 73.9557 17.7813 74.4997 17.472C75.0544 17.1627 75.6517 17.008 76.2917 17.008ZM81.4733 21.536C81.4733 20.64 81.6493 19.8453 82.0013 19.152C82.364 18.4587 82.8493 17.9253 83.4573 17.552C84.076 17.1787 84.764 16.992 85.5213 16.992C86.1826 16.992 86.7586 17.1253 87.2493 17.392C87.7506 17.6587 88.1506 17.9947 88.4493 18.4V17.136H90.7053V26H88.4493V24.704C88.1613 25.12 87.7613 25.4667 87.2493 25.744C86.748 26.0107 86.1666 26.144 85.5053 26.144C84.7586 26.144 84.076 25.952 83.4573 25.568C82.8493 25.184 82.364 24.6453 82.0013 23.952C81.6493 23.248 81.4733 22.4427 81.4733 21.536ZM88.4493 21.568C88.4493 21.024 88.3426 20.56 88.1293 20.176C87.916 19.7813 87.628 19.4827 87.2653 19.28C86.9026 19.0667 86.5133 18.96 86.0973 18.96C85.6813 18.96 85.2973 19.0613 84.9453 19.264C84.5933 19.4667 84.3053 19.7653 84.0813 20.16C83.868 20.544 83.7613 21.0027 83.7613 21.536C83.7613 22.0693 83.868 22.5387 84.0813 22.944C84.3053 23.3387 84.5933 23.6427 84.9453 23.856C85.308 24.0693 85.692 24.176 86.0973 24.176C86.5133 24.176 86.9026 24.0747 87.2653 23.872C87.628 23.6587 87.916 23.36 88.1293 22.976C88.3426 22.5813 88.4493 22.112 88.4493 21.568ZM96.1296 21.536C96.1296 20.64 96.3056 19.8453 96.6576 19.152C97.0202 18.4587 97.5056 17.9253 98.1136 17.552C98.7322 17.1787 99.4202 16.992 100.178 16.992C100.839 16.992 101.415 17.1253 101.906 17.392C102.407 17.6587 102.807 17.9947 103.106 18.4V17.136H105.362V26H103.106V24.704C102.818 25.12 102.418 25.4667 101.906 25.744C101.404 26.0107 100.823 26.144 100.162 26.144C99.4149 26.144 98.7322 25.952 98.1136 25.568C97.5056 25.184 97.0202 24.6453 96.6576 23.952C96.3056 23.248 96.1296 22.4427 96.1296 21.536ZM103.106 21.568C103.106 21.024 102.999 20.56 102.786 20.176C102.572 19.7813 102.284 19.4827 101.922 19.28C101.559 19.0667 101.17 18.96 100.754 18.96C100.338 18.96 99.9536 19.0613 99.6016 19.264C99.2496 19.4667 98.9616 19.7653 98.7376 20.16C98.5242 20.544 98.4176 21.0027 98.4176 21.536C98.4176 22.0693 98.5242 22.5387 98.7376 22.944C98.9616 23.3387 99.2496 23.6427 99.6016 23.856C99.9642 24.0693 100.348 24.176 100.754 24.176C101.17 24.176 101.559 24.0747 101.922 23.872C102.284 23.6587 102.572 23.36 102.786 22.976C102.999 22.5813 103.106 22.112 103.106 21.568ZM115.917 17.136V26H113.661V24.88C113.373 25.264 112.995 25.568 112.525 25.792C112.067 26.0053 111.565 26.112 111.021 26.112C110.328 26.112 109.715 25.968 109.181 25.68C108.648 25.3813 108.227 24.9493 107.917 24.384C107.619 23.808 107.469 23.1253 107.469 22.336V17.136H109.709V22.016C109.709 22.72 109.885 23.264 110.237 23.648C110.589 24.0213 111.069 24.208 111.677 24.208C112.296 24.208 112.781 24.0213 113.133 23.648C113.485 23.264 113.661 22.72 113.661 22.016V17.136H115.917ZM120.367 14.16V26H118.127V14.16H120.367ZM122.005 21.536C122.005 20.64 122.181 19.8453 122.533 19.152C122.895 18.4587 123.381 17.9253 123.989 17.552C124.607 17.1787 125.295 16.992 126.053 16.992C126.714 16.992 127.29 17.1253 127.781 17.392C128.282 17.6587 128.682 17.9947 128.981 18.4V17.136H131.237V26H128.981V24.704C128.693 25.12 128.293 25.4667 127.781 25.744C127.279 26.0107 126.698 26.144 126.037 26.144C125.29 26.144 124.607 25.952 123.989 25.568C123.381 25.184 122.895 24.6453 122.533 23.952C122.181 23.248 122.005 22.4427 122.005 21.536ZM128.981 21.568C128.981 21.024 128.874 20.56 128.661 20.176C128.447 19.7813 128.159 19.4827 127.797 19.28C127.434 19.0667 127.045 18.96 126.629 18.96C126.213 18.96 125.829 19.0613 125.477 19.264C125.125 19.4667 124.837 19.7653 124.613 20.16C124.399 20.544 124.293 21.0027 124.293 21.536C124.293 22.0693 124.399 22.5387 124.613 22.944C124.837 23.3387 125.125 23.6427 125.477 23.856C125.839 24.0693 126.223 24.176 126.629 24.176C127.045 24.176 127.434 24.0747 127.797 23.872C128.159 23.6587 128.447 23.36 128.661 22.976C128.874 22.5813 128.981 22.112 128.981 21.568Z" fill="white"/>
<path d="M148.734 28.25L156.938 20L148.734 11.75L150.516 10.0156L160.5 20L150.516 29.9844L148.734 28.25Z" fill="white"/>
</g>
<defs>
<filter id="filter0_d_8_3721" x="-7.5" y="-8" width="198" height="56" filterUnits="userSpaceOnUse" color-interpolation-filters="sRGB">
<feFlood flood-opacity="0" result="BackgroundImageFix"/>
<feColorMatrix in="SourceAlpha" type="matrix" values="0 0 0 0 0 0 0 0 0 0 0 0 0 0 0 0 0 0 127 0" result="hardAlpha"/>
<feOffset/>
<feGaussianBlur stdDeviation="4"/>
<feComposite in2="hardAlpha" operator="out"/>
<feColorMatrix type="matrix" values="0 0 0 0 0 0 0 0 0 0 0 0 0 0 0 0 0 0 0.16 0"/>
<feBlend mode="normal" in2="BackgroundImageFix" result="effect1_dropShadow_8_3721"/>
<feBlend mode="normal" in="SourceGraphic" in2="effect1_dropShadow_8_3721" result="shape"/>
</filter>
</defs>
</svg>
