<svg width="20" height="24" viewBox="0 0 20 24" fill="none" xmlns="http://www.w3.org/2000/svg">
<path d="M8.24219 10.2422C8.73698 9.7474 9.32292 9.5 10 9.5C10.6771 9.5 11.263 9.7474 11.7578 10.2422C12.2526 10.737 12.5 11.3229 12.5 12C12.5 12.6771 12.2526 13.263 11.7578 13.7578C11.263 14.2526 10.6771 14.5 10 14.5C9.32292 14.5 8.73698 14.2526 8.24219 13.7578C7.7474 13.263 7.5 12.6771 7.5 12C7.5 11.3229 7.7474 10.737 8.24219 10.2422ZM7.03125 14.9688C7.86458 15.776 8.85417 16.1797 10 16.1797C11.1458 16.1797 12.1224 15.776 12.9297 14.9688C13.763 14.1354 14.1797 13.1458 14.1797 12C14.1797 10.8542 13.763 9.8776 12.9297 9.07031C12.1224 8.23698 11.1458 7.82031 10 7.82031C8.85417 7.82031 7.86458 8.23698 7.03125 9.07031C6.22396 9.8776 5.82031 10.8542 5.82031 12C5.82031 13.1458 6.22396 14.1354 7.03125 14.9688ZM4.41406 7.46875C6.08073 6.32292 7.94271 5.75 10 5.75C12.0573 5.75 13.9193 6.32292 15.5859 7.46875C17.2526 8.61458 18.4505 10.125 19.1797 12C18.4505 13.875 17.2526 15.3854 15.5859 16.5312C13.9193 17.6771 12.0573 18.25 10 18.25C7.94271 18.25 6.08073 17.6771 4.41406 16.5312C2.7474 15.3854 1.54948 13.875 0.820312 12C1.54948 10.125 2.7474 8.61458 4.41406 7.46875Z" fill="#AB58B9"/>
</svg>
