<svg width="20" height="20" viewBox="0 0 20 20" fill="none" xmlns="http://www.w3.org/2000/svg">
<path d="M10 0.015625C11.375 0.015625 12.6562 0.28125 13.8438 0.8125C15.0625 1.3125 16.125 2.03125 17.0312 2.96875C17.9688 3.875 18.6875 4.9375 19.1875 6.15625C19.7188 7.34375 19.9844 8.625 19.9844 10C19.9844 11.375 19.7188 12.6719 19.1875 13.8906C18.6875 15.0781 17.9688 16.1406 17.0312 17.0781C16.125 17.9844 15.0625 18.7031 13.8438 19.2344C12.6562 19.7344 11.375 19.9844 10 19.9844C8.625 19.9844 7.32812 19.7344 6.10938 19.2344C4.92188 18.7031 3.85938 17.9844 2.92188 17.0781C2.01562 16.1406 1.29688 15.0781 0.765625 13.8906C0.265625 12.6719 0.015625 11.375 0.015625 10C0.015625 8.625 0.265625 7.34375 0.765625 6.15625C1.29688 4.9375 2.01562 3.875 2.92188 2.96875C3.85938 2.03125 4.92188 1.3125 6.10938 0.8125C7.32812 0.28125 8.625 0.015625 10 0.015625ZM7.51562 14.5L14.5 10L7.51562 5.5V14.5Z" fill="#F8F9FA"/>
</svg>
