<svg width="20" height="20" viewBox="0 0 20 20" fill="none" xmlns="http://www.w3.org/2000/svg">
<path d="M1.98438 4V18.0156H16V19.9844H1.98438C1.45312 19.9844 0.984375 19.7969 0.578125 19.4219C0.203125 19.0156 0.015625 18.5469 0.015625 18.0156V4H1.98438ZM18.0156 0.015625C18.5469 0.015625 19 0.21875 19.375 0.625C19.7812 1 19.9844 1.45313 19.9844 1.98438V13.9844C19.9844 14.5469 19.7812 15.0312 19.375 15.4375C19 15.8125 18.5469 16 18.0156 16H6.01562C5.45312 16 4.96875 15.8125 4.5625 15.4375C4.1875 15.0312 4 14.5469 4 13.9844V1.98438C4 1.45313 4.1875 1 4.5625 0.625C4.96875 0.21875 5.45312 0.015625 6.01562 0.015625H18.0156ZM12.0156 13C12.2969 13 12.5312 12.9062 12.7188 12.7188C12.9375 12.5 13.0469 12.25 13.0469 11.9688C13.0469 11.6562 12.9375 11.4062 12.7188 11.2188C12.5312 11 12.2969 10.8906 12.0156 10.8906C11.7344 10.8906 11.4844 11 11.2656 11.2188C11.0469 11.4062 10.9375 11.6562 10.9375 11.9688C10.9375 12.25 11.0312 12.5 11.2188 12.7188C11.4375 12.9062 11.7031 13 12.0156 13ZM14.5 6.8125C14.7812 6.40625 14.8906 5.95313 14.8281 5.45312C14.7969 4.95312 14.6875 4.5625 14.5 4.28125C14.2812 3.90625 13.9531 3.60938 13.5156 3.39062C13.1094 3.14063 12.5938 3.01562 11.9688 3.01562C11.25 3.01562 10.6406 3.21875 10.1406 3.625C9.67188 4.03125 9.32812 4.51562 9.10938 5.07812L10.5156 5.64062C10.6094 5.35938 10.7656 5.09375 10.9844 4.84375C11.2344 4.5625 11.5781 4.42188 12.0156 4.42188C12.4531 4.42188 12.7812 4.54688 13 4.79688C13.2188 5.01563 13.3281 5.28125 13.3281 5.59375C13.3594 5.875 13.2969 6.14062 13.1406 6.39062C12.9219 6.70312 12.6406 6.98438 12.2969 7.23438C11.9844 7.48438 11.7188 7.79688 11.5 8.17188C11.3438 8.45312 11.2656 8.75 11.2656 9.0625C11.2656 9.375 11.2656 9.625 11.2656 9.8125H12.7656C12.7656 9.4375 12.7812 9.1875 12.8125 9.0625C12.8438 8.90625 12.8906 8.76562 12.9531 8.64062C13.1094 8.32812 13.3281 8.0625 13.6094 7.84375C13.8906 7.625 14.1875 7.28125 14.5 6.8125Z" fill="#343A40"/>
</svg>
