<svg width="24" height="24" viewBox="0 0 24 24" fill="none" xmlns="http://www.w3.org/2000/svg">
<path d="M4.4375 13.4875C5.60417 14.6542 7.02083 15.2375 8.6875 15.2375C10.3542 15.2375 11.7708 14.6542 12.9375 13.4875C14.1042 12.3208 14.6875 10.9042 14.6875 9.23749C14.6875 7.57082 14.1042 6.15415 12.9375 4.98749C11.7708 3.82082 10.3542 3.23749 8.6875 3.23749C7.02083 3.23749 5.60417 3.82082 4.4375 4.98749C3.27083 6.15415 2.6875 7.57082 2.6875 9.23749C2.6875 10.9042 3.27083 12.3208 4.4375 13.4875ZM16.6875 15.2375L23.3125 21.8625L21.3125 23.8625L14.6875 17.2375V16.175L14.3125 15.8C12.7292 17.175 10.8542 17.8625 8.6875 17.8625C6.27083 17.8625 4.20833 17.0292 2.5 15.3625C0.833333 13.6958 0 11.6542 0 9.23749C0 6.82082 0.833333 4.77915 2.5 3.11249C4.20833 1.40415 6.27083 0.549988 8.6875 0.549988C11.1042 0.549988 13.1458 1.40415 14.8125 3.11249C16.4792 4.77915 17.3125 6.82082 17.3125 9.23749C17.3125 10.1125 17.1042 11.1125 16.6875 12.2375C16.2708 13.3208 15.7917 14.1958 15.25 14.8625L15.625 15.2375H16.6875Z" fill="#212529"/>
</svg>
