<svg width="14" height="15" viewBox="0 0 14 15" fill="none" xmlns="http://www.w3.org/2000/svg">
<path d="M7.34375 4.20624V7.70624L10.3438 9.48749L9.84375 10.3312L6.34375 8.20624V4.20624H7.34375ZM3.21875 11.3312C4.28125 12.3729 5.54167 12.8937 7 12.8937C8.45833 12.8937 9.70833 12.3729 10.75 11.3312C11.8125 10.2687 12.3438 9.00832 12.3438 7.54999C12.3438 6.09165 11.8125 4.84165 10.75 3.79999C9.70833 2.73749 8.45833 2.20624 7 2.20624C5.54167 2.20624 4.28125 2.73749 3.21875 3.79999C2.17708 4.84165 1.65625 6.09165 1.65625 7.54999C1.65625 9.00832 2.17708 10.2687 3.21875 11.3312ZM2.28125 2.86249C3.59375 1.54999 5.16667 0.893738 7 0.893738C8.83333 0.893738 10.3958 1.54999 11.6875 2.86249C13 4.15415 13.6562 5.71665 13.6562 7.54999C13.6562 9.38332 13 10.9562 11.6875 12.2687C10.3958 13.5604 8.83333 14.2062 7 14.2062C5.16667 14.2062 3.59375 13.5604 2.28125 12.2687C0.989583 10.9562 0.34375 9.38332 0.34375 7.54999C0.34375 5.71665 0.989583 4.15415 2.28125 2.86249Z" fill="#343A40"/>
</svg>
